<mxfile host="65bd71144e" modified="2021-11-12T02:56:07.261Z" agent="5.0 (Windows NT 10.0; Win64; x64) AppleWebKit/537.36 (KHTML, like Gecko) Code/1.62.1 Chrome/91.0.4472.164 Electron/13.5.2 Safari/537.36" etag="UyZoGqlGsxf8qv-SUa_h" version="15.7.3" type="embed" pages="2">
    <diagram id="X5HwtGDgar2OMqz5m4xb" name="S13-01 店舗情報一覧">
        <mxGraphModel dx="1740" dy="1675" grid="1" gridSize="10" guides="1" tooltips="1" connect="1" arrows="1" fold="1" page="1" pageScale="1" pageWidth="827" pageHeight="1169" math="0" shadow="0">
            <root>
                <mxCell id="0"/>
                <mxCell id="1" parent="0"/>
                <mxCell id="2" value="" style="rounded=0;whiteSpace=wrap;html=1;" parent="1" vertex="1">
                    <mxGeometry x="-740" y="-150" width="680" height="403.5" as="geometry"/>
                </mxCell>
                <mxCell id="3" value="店舗情報一覧" style="text;html=1;strokeColor=none;fillColor=none;align=center;verticalAlign=middle;whiteSpace=wrap;rounded=0;fontColor=default;fontStyle=1;fontSize=20;" parent="1" vertex="1">
                    <mxGeometry x="-480" y="-131.5" width="162.5" height="50" as="geometry"/>
                </mxCell>
                <mxCell id="4" value="" style="shape=table;startSize=0;container=1;collapsible=0;childLayout=tableLayout;" parent="1" vertex="1">
                    <mxGeometry x="-675.38" y="-56.5" width="550.75" height="240" as="geometry"/>
                </mxCell>
                <mxCell id="5" value="" style="shape=partialRectangle;collapsible=0;dropTarget=0;pointerEvents=0;fillColor=none;top=0;left=0;bottom=0;right=0;points=[[0,0.5],[1,0.5]];portConstraint=eastwest;" parent="4" vertex="1">
                    <mxGeometry width="550.75" height="37" as="geometry"/>
                </mxCell>
                <mxCell id="6" value="店舗ID" style="shape=partialRectangle;html=1;whiteSpace=wrap;connectable=0;overflow=hidden;fillColor=#b0e3e6;top=0;left=0;bottom=0;right=0;pointerEvents=1;strokeColor=#0e8088;" parent="5" vertex="1">
                    <mxGeometry width="184" height="37" as="geometry">
                        <mxRectangle width="184" height="37" as="alternateBounds"/>
                    </mxGeometry>
                </mxCell>
                <mxCell id="7" value="店舗名" style="shape=partialRectangle;html=1;whiteSpace=wrap;connectable=0;overflow=hidden;fillColor=#b0e3e6;top=0;left=0;bottom=0;right=0;pointerEvents=1;strokeColor=#0e8088;" parent="5" vertex="1">
                    <mxGeometry x="184" width="183" height="37" as="geometry">
                        <mxRectangle width="183" height="37" as="alternateBounds"/>
                    </mxGeometry>
                </mxCell>
                <mxCell id="8" value="店長" style="shape=partialRectangle;html=1;whiteSpace=wrap;connectable=0;overflow=hidden;fillColor=#b0e3e6;top=0;left=0;bottom=0;right=0;pointerEvents=1;strokeColor=#0e8088;" parent="5" vertex="1">
                    <mxGeometry x="367" width="184" height="37" as="geometry">
                        <mxRectangle width="184" height="37" as="alternateBounds"/>
                    </mxGeometry>
                </mxCell>
                <mxCell id="9" value="" style="shape=partialRectangle;collapsible=0;dropTarget=0;pointerEvents=0;fillColor=none;top=0;left=0;bottom=0;right=0;points=[[0,0.5],[1,0.5]];portConstraint=eastwest;" parent="4" vertex="1">
                    <mxGeometry y="37" width="550.75" height="51" as="geometry"/>
                </mxCell>
                <mxCell id="10" value="001" style="shape=partialRectangle;html=1;whiteSpace=wrap;connectable=0;overflow=hidden;fillColor=none;top=0;left=0;bottom=0;right=0;pointerEvents=1;" parent="9" vertex="1">
                    <mxGeometry width="184" height="51" as="geometry">
                        <mxRectangle width="184" height="51" as="alternateBounds"/>
                    </mxGeometry>
                </mxCell>
                <mxCell id="11" value="A" style="shape=partialRectangle;html=1;whiteSpace=wrap;connectable=0;overflow=hidden;fillColor=none;top=0;left=0;bottom=0;right=0;pointerEvents=1;" parent="9" vertex="1">
                    <mxGeometry x="184" width="183" height="51" as="geometry">
                        <mxRectangle width="183" height="51" as="alternateBounds"/>
                    </mxGeometry>
                </mxCell>
                <mxCell id="12" value="大原太郎" style="shape=partialRectangle;html=1;whiteSpace=wrap;connectable=0;overflow=hidden;fillColor=none;top=0;left=0;bottom=0;right=0;pointerEvents=1;" parent="9" vertex="1">
                    <mxGeometry x="367" width="184" height="51" as="geometry">
                        <mxRectangle width="184" height="51" as="alternateBounds"/>
                    </mxGeometry>
                </mxCell>
                <mxCell id="13" style="shape=partialRectangle;collapsible=0;dropTarget=0;pointerEvents=0;fillColor=none;top=0;left=0;bottom=0;right=0;points=[[0,0.5],[1,0.5]];portConstraint=eastwest;" parent="4" vertex="1">
                    <mxGeometry y="88" width="550.75" height="51" as="geometry"/>
                </mxCell>
                <mxCell id="14" value="002" style="shape=partialRectangle;html=1;whiteSpace=wrap;connectable=0;overflow=hidden;fillColor=none;top=0;left=0;bottom=0;right=0;pointerEvents=1;" parent="13" vertex="1">
                    <mxGeometry width="184" height="51" as="geometry">
                        <mxRectangle width="184" height="51" as="alternateBounds"/>
                    </mxGeometry>
                </mxCell>
                <mxCell id="15" value="B" style="shape=partialRectangle;html=1;whiteSpace=wrap;connectable=0;overflow=hidden;fillColor=none;top=0;left=0;bottom=0;right=0;pointerEvents=1;" parent="13" vertex="1">
                    <mxGeometry x="184" width="183" height="51" as="geometry">
                        <mxRectangle width="183" height="51" as="alternateBounds"/>
                    </mxGeometry>
                </mxCell>
                <mxCell id="16" value="佐藤祐樹" style="shape=partialRectangle;html=1;whiteSpace=wrap;connectable=0;overflow=hidden;fillColor=none;top=0;left=0;bottom=0;right=0;pointerEvents=1;" parent="13" vertex="1">
                    <mxGeometry x="367" width="184" height="51" as="geometry">
                        <mxRectangle width="184" height="51" as="alternateBounds"/>
                    </mxGeometry>
                </mxCell>
                <mxCell id="17" style="shape=partialRectangle;collapsible=0;dropTarget=0;pointerEvents=0;fillColor=none;top=0;left=0;bottom=0;right=0;points=[[0,0.5],[1,0.5]];portConstraint=eastwest;" parent="4" vertex="1">
                    <mxGeometry y="139" width="550.75" height="50" as="geometry"/>
                </mxCell>
                <mxCell id="18" value="003" style="shape=partialRectangle;html=1;whiteSpace=wrap;connectable=0;overflow=hidden;fillColor=none;top=0;left=0;bottom=0;right=0;pointerEvents=1;" parent="17" vertex="1">
                    <mxGeometry width="184" height="50" as="geometry">
                        <mxRectangle width="184" height="50" as="alternateBounds"/>
                    </mxGeometry>
                </mxCell>
                <mxCell id="19" value="C" style="shape=partialRectangle;html=1;whiteSpace=wrap;connectable=0;overflow=hidden;fillColor=none;top=0;left=0;bottom=0;right=0;pointerEvents=1;" parent="17" vertex="1">
                    <mxGeometry x="184" width="183" height="50" as="geometry">
                        <mxRectangle width="183" height="50" as="alternateBounds"/>
                    </mxGeometry>
                </mxCell>
                <mxCell id="20" value="大宮一茶" style="shape=partialRectangle;html=1;whiteSpace=wrap;connectable=0;overflow=hidden;fillColor=none;top=0;left=0;bottom=0;right=0;pointerEvents=1;" parent="17" vertex="1">
                    <mxGeometry x="367" width="184" height="50" as="geometry">
                        <mxRectangle width="184" height="50" as="alternateBounds"/>
                    </mxGeometry>
                </mxCell>
                <mxCell id="21" style="shape=partialRectangle;collapsible=0;dropTarget=0;pointerEvents=0;fillColor=none;top=0;left=0;bottom=0;right=0;points=[[0,0.5],[1,0.5]];portConstraint=eastwest;" parent="4" vertex="1">
                    <mxGeometry y="189" width="550.75" height="51" as="geometry"/>
                </mxCell>
                <mxCell id="22" value="004" style="shape=partialRectangle;html=1;whiteSpace=wrap;connectable=0;overflow=hidden;fillColor=none;top=0;left=0;bottom=0;right=0;pointerEvents=1;" parent="21" vertex="1">
                    <mxGeometry width="184" height="51" as="geometry">
                        <mxRectangle width="184" height="51" as="alternateBounds"/>
                    </mxGeometry>
                </mxCell>
                <mxCell id="23" value="D" style="shape=partialRectangle;html=1;whiteSpace=wrap;connectable=0;overflow=hidden;fillColor=none;top=0;left=0;bottom=0;right=0;pointerEvents=1;" parent="21" vertex="1">
                    <mxGeometry x="184" width="183" height="51" as="geometry">
                        <mxRectangle width="183" height="51" as="alternateBounds"/>
                    </mxGeometry>
                </mxCell>
                <mxCell id="24" value="伊藤博文" style="shape=partialRectangle;html=1;whiteSpace=wrap;connectable=0;overflow=hidden;fillColor=none;top=0;left=0;bottom=0;right=0;pointerEvents=1;" parent="21" vertex="1">
                    <mxGeometry x="367" width="184" height="51" as="geometry">
                        <mxRectangle width="184" height="51" as="alternateBounds"/>
                    </mxGeometry>
                </mxCell>
                <mxCell id="25" value="" style="shape=image;verticalLabelPosition=bottom;labelBackgroundColor=#ffffff;verticalAlign=top;aspect=fixed;imageAspect=0;image=data:image/png,iVBORw0KGgoAAAANSUhEUgAAAIIAAAAlCAYAAACOGjGrAAAJR0lEQVR4Ae2bZagVbRDHrwFioBgfxAAFFQNEPwiKBdYXERMDRVFEsUFFxW7EQOxWFAxUsDExsQu7u7s75uU3MNd9lz1nd48Xz7nnnoV1z90npv7PzDzzrGlfvnyR1J3SQVoKBCkQgIEUEFIeUSNCCggpIKSAkAqLf8JiKI/w7ds3sev79+9/lWR+/frVppIgc9H/x48f6WOcP37//h2IF+b4+fOnDv3161egMf8KLPCGHFxB9UFf5GDs3/IZCgjv37+XCxcuyN69e+X58+cxE4fxd+/eydGjR+XEiRPy+PFj+fTpU0SBACDKefLkiaxfv15mzZolU6ZMkWnTpunfly9fVgPTL5JCaIPmnTt35ODBg8KYSH3j8f7t27dy8eJF2b17t8oZjQfT35kzZ+TevXvpwI4mf7T5aAsEBEPorVu3ZNKkSdKmTRsFBBOERSP9me/p06cyYMAAGTZsmBw7dkwAmdFxM42A9N+0aZPUrl1b8ufPL2lpaZIzZ06pWbOmAgNgfv78OSI/eBMAt23bNunatassWrQoIYBg+nvw4IHMnTtXWrZsKcePH1ferM2pD96hj0ePHsm4ceNk6dKlcvfuXXnz5k1U+Z1zeP32BYK5UmC3YcMG6dSpkzRv3lyBAFNezHoRsnf0NyAMGjRIRo4cqYJ7AYG+GBcjs/obNWqkytq3b5+cP39eTp8+LVOnTpWePXvKmDFj5ObNm+oZjJbzCRDwKNu3b5fu3bvLkiVLEgoIDx8+lPnz50vr1q3l5MmTUYGA/gACuqtWrZpUqVJF9cMcsYaLiEAAdRgC98Pq6dWrl9SoUUMqVaqkzOLGaOd2KtzvN/0NCEOGDJHRo0drePACAv0IGUeOHJEePXpIvXr15NSpUyqs/YPShg8fLk2bNpUDBw7Ix48fPXkyIOzYsUPnWrZsWSi+/eSKtd30hxEXLFgg7dq1CwWEEiVKqHesWrWqdO7cWcFE2LN8Kmi4iAgEjMAkW7Zskfbt20uhQoXUJZcqVUqZ/VdAwLC7du3SkERYYlUjpCnwxYsXsnjxYqlfv75s3LhR+NtL+GQEwqhRo6RixYoKBEIld+HChTVkkH+hCzyqLepoYI0IBBtEgvXy5Uu5f/++rriBAwdKs2bNMiQ0+HkE4wFv8fr1a70RjPcGhGfPnsnChQulYcOGmkNkNSBUqFDhf0AADHnz5pVy5cpp6CAvYhEQ4k2fXk9fIJiLwRWTLBKLccPEaIxhBvGa3Osd/YOGBhtPf7ZJbK+MHu8Q7vr16zJx4kSpW7euZtwfPnzIUh7BCYRs2bL9DxSlS5dW7z179mzVEzZEh14e0xcIGIOBxGqMb/H4XwLBAGFP+AEIeCsy7Q4dOki3bt3k3Llz+t7AYv15JmtocALBwoP7WblyZRkxYoQcOnRIPTvh1g2GTAkEjMq+G8HKly+vWfPhw4f1HW1OANjvrAwE8xTFihUTvAO1FHcRLlMBgZVOOCBPYCvLamjQoIFmygCDdi9vkFU9ggHA6SHYXSxfvlzzPvRi+so0QMCVcZMDrFq1SmsZZcuW1WISOwlyCLe7M2+QVYFgAChSpIhu/dmaUkPZvHmz7igyJRDICdg5UCuoVauW4OZWrlypFUeSIKfRvX5ntdBg3qBgwYLStm1b2blzp5ZeCAnowjyB6SpTeATCAVtIqoIlS5bU7SvlZraOCBTNE5igWQEIZnw8AeV3tvnUga5evar5E3pED1768gUCA+26ffu2FitatWqlCYe9Z7Wawv2eGI7+nB341REMtWS5gKBPnz7SokULLRwZbefT6yQOWqwC2gghYSuLjONyryKUybxcbvlNZ7TTz2ofXroxGWOpLFJQcu8aAACleHSLF4A2F3J40bd3vkB49eqVbjk4ddy6dWt6qZfDG5DG6RfbuGjCGjGeYYCAEtm2QofzhDJlyughy9mzZ+XGjRty6dIlvalyUlblTIL+Tnp4EjwH7wBfGCAgE2PJstEDc5vhyFWYjzYSVaNJO305C6CYA30bY32cT2uLFQgUjvAA+fLlkwIFCmhhDTuxeLi8Vr+Tvv2OCARQzk3ZFg+QK1cudTeWgIC8okWLasGC8wgEdq8MI+J8Ijj9gngEXBkK54StevXqKnCOHDkkd+7ckidPnvQ7e/bsQiyk1IzymR86KAPepk+frgUVTuiCAMGMA222W3ghlGtJKfIATo7Ccb+cFppc8IzOBg8eLGPHjtV+GMSpA+dvoxULEDh0Kl68uOqFcwaOsMmjWJjQCAoC+kYEAgxys+rWrFmjIWHChAnp3wHY77Vr1wpHqCjdhHIK6v5Nn6BAMI+AMVevXq20OW+A9vjx49NvDq54zwEUxmYcN4aD9yZNmujBFYYNAgTjGQ9AzR7aV65c0bkN7ACZOgY7GLwiY0w2dIZb5rsN+hEqbE7303QWFgj0p7jXu3dvmTFjhlBHQT4uwGjzuulF+jsiEGwAk/pdphwbE+1pygriEWwei9N+fBCTmd9oYJDJkyfrNwt8jIJhwwAB+pYHuJUL0Oxyy+/UGf2ihU0zWBggMIYwSD0AANgF4KLRMn16PX2B4DXob96ZkcIAISw9aGCM/fv366rp2LGjhgjCV1gghKUdtn9YIDjnB9ixGt45D7/jBgTcdr9+/TSW4n6D5hhuAbz+ZhXiRdatW6euc+jQoRqrCRtsp/i4ho9AzAhec/yrd8YD4XXmzJkaxvhiC/rW5sULbXgAtzfy6hvk3T8HAkxhKDLrFStWaPy9du2a5hi8D8K0Xx/m4Zo3b55+S8HBFHGcGMqHLYBgz549GULLjxe/djM2rh5vxZdYnKgyztr85siI9rgAwRgHzdwZLbABgay9cePGWlIlFBEuaGMlZRToTJaMeBpvGa2PILwlJRAAFxcZNZ/XUXew0IOSaU8B4c//aQAocQVCEKTG0gcjs/r5ToHTNvIRvEA8Vlos/MdjTNIBwYzNJ2sUwvAIZNZc8VBwZqGZdEDA7RMGKELx0S1gYJtFPSCzGCUefCYdEAgJlFk5nezSpYv07dtXgeB36BIP5ScSzaQDAgZnKzZnzhz9CIPSMx4BgCSS4hONl6QDArkAJ38cw3JsTa2CHIFkMdGUn0j8JCUQKB6RH/Tv319P5AACuUMiKT7ReElKIPD/L+rUqaNegYMngJCIdYNEAsN/qpyiMTVscqAAAAAASUVORK5CYII=;" parent="1" vertex="1">
                    <mxGeometry x="-441.05" y="213.5" width="84.6" height="24.08" as="geometry"/>
                </mxCell>
            </root>
        </mxGraphModel>
    </diagram>
    <diagram id="67tQ-7ENQZwjWp0TGb0x" name="S13-02 店舗情報詳細">
        <mxGraphModel dx="776" dy="430" grid="1" gridSize="10" guides="1" tooltips="1" connect="1" arrows="1" fold="1" page="1" pageScale="1" pageWidth="827" pageHeight="1169" math="0" shadow="0">
            <root>
                <mxCell id="5RedW3WJM9E-DbaDht19-0"/>
                <mxCell id="5RedW3WJM9E-DbaDht19-1" parent="5RedW3WJM9E-DbaDht19-0"/>
                <mxCell id="awfxSUN__mGekCUjlMmU-0" value="" style="rounded=0;whiteSpace=wrap;html=1;" parent="5RedW3WJM9E-DbaDht19-1" vertex="1">
                    <mxGeometry x="15" y="36.5" width="680" height="363.5" as="geometry"/>
                </mxCell>
                <mxCell id="awfxSUN__mGekCUjlMmU-1" value="店舗情報詳細" style="text;html=1;strokeColor=none;fillColor=none;align=center;verticalAlign=middle;whiteSpace=wrap;rounded=0;fontColor=default;fontStyle=1;fontSize=20;" parent="5RedW3WJM9E-DbaDht19-1" vertex="1">
                    <mxGeometry x="282.5" y="55" width="145" height="50" as="geometry"/>
                </mxCell>
                <mxCell id="awfxSUN__mGekCUjlMmU-2" value="" style="shape=table;startSize=0;container=1;collapsible=0;childLayout=tableLayout;" parent="5RedW3WJM9E-DbaDht19-1" vertex="1">
                    <mxGeometry x="115" y="114.87" width="480" height="256.75" as="geometry"/>
                </mxCell>
                <mxCell id="awfxSUN__mGekCUjlMmU-3" style="shape=partialRectangle;collapsible=0;dropTarget=0;pointerEvents=0;fillColor=none;top=0;left=0;bottom=0;right=0;points=[[0,0.5],[1,0.5]];portConstraint=eastwest;" parent="awfxSUN__mGekCUjlMmU-2" vertex="1">
                    <mxGeometry width="480" height="52" as="geometry"/>
                </mxCell>
                <mxCell id="awfxSUN__mGekCUjlMmU-4" value="店舗ID" style="shape=partialRectangle;html=1;whiteSpace=wrap;connectable=0;overflow=hidden;fillColor=#b0e3e6;top=0;left=0;bottom=0;right=0;pointerEvents=1;strokeColor=#0e8088;" parent="awfxSUN__mGekCUjlMmU-3" vertex="1">
                    <mxGeometry width="147" height="52" as="geometry">
                        <mxRectangle width="147" height="52" as="alternateBounds"/>
                    </mxGeometry>
                </mxCell>
                <mxCell id="awfxSUN__mGekCUjlMmU-5" value="001" style="shape=partialRectangle;html=1;whiteSpace=wrap;connectable=0;overflow=hidden;fillColor=none;top=0;left=0;bottom=0;right=0;pointerEvents=1;" parent="awfxSUN__mGekCUjlMmU-3" vertex="1">
                    <mxGeometry x="147" width="333" height="52" as="geometry">
                        <mxRectangle width="333" height="52" as="alternateBounds"/>
                    </mxGeometry>
                </mxCell>
                <mxCell id="awfxSUN__mGekCUjlMmU-6" value="" style="shape=partialRectangle;collapsible=0;dropTarget=0;pointerEvents=0;fillColor=none;top=0;left=0;bottom=0;right=0;points=[[0,0.5],[1,0.5]];portConstraint=eastwest;" parent="awfxSUN__mGekCUjlMmU-2" vertex="1">
                    <mxGeometry y="52" width="480" height="51" as="geometry"/>
                </mxCell>
                <mxCell id="awfxSUN__mGekCUjlMmU-7" value="店舗名" style="shape=partialRectangle;html=1;whiteSpace=wrap;connectable=0;overflow=hidden;fillColor=#b0e3e6;top=0;left=0;bottom=0;right=0;pointerEvents=1;strokeColor=#0e8088;" parent="awfxSUN__mGekCUjlMmU-6" vertex="1">
                    <mxGeometry width="147" height="51" as="geometry">
                        <mxRectangle width="147" height="51" as="alternateBounds"/>
                    </mxGeometry>
                </mxCell>
                <mxCell id="awfxSUN__mGekCUjlMmU-8" value="A" style="shape=partialRectangle;html=1;whiteSpace=wrap;connectable=0;overflow=hidden;fillColor=none;top=0;left=0;bottom=0;right=0;pointerEvents=1;" parent="awfxSUN__mGekCUjlMmU-6" vertex="1">
                    <mxGeometry x="147" width="333" height="51" as="geometry">
                        <mxRectangle width="333" height="51" as="alternateBounds"/>
                    </mxGeometry>
                </mxCell>
                <mxCell id="awfxSUN__mGekCUjlMmU-9" value="" style="shape=partialRectangle;collapsible=0;dropTarget=0;pointerEvents=0;fillColor=none;top=0;left=0;bottom=0;right=0;points=[[0,0.5],[1,0.5]];portConstraint=eastwest;" parent="awfxSUN__mGekCUjlMmU-2" vertex="1">
                    <mxGeometry y="103" width="480" height="51" as="geometry"/>
                </mxCell>
                <mxCell id="awfxSUN__mGekCUjlMmU-10" value="店長" style="shape=partialRectangle;html=1;whiteSpace=wrap;connectable=0;overflow=hidden;fillColor=#b0e3e6;top=0;left=0;bottom=0;right=0;pointerEvents=1;strokeColor=#0e8088;" parent="awfxSUN__mGekCUjlMmU-9" vertex="1">
                    <mxGeometry width="147" height="51" as="geometry">
                        <mxRectangle width="147" height="51" as="alternateBounds"/>
                    </mxGeometry>
                </mxCell>
                <mxCell id="awfxSUN__mGekCUjlMmU-11" value="大原太郎" style="shape=partialRectangle;html=1;whiteSpace=wrap;connectable=0;overflow=hidden;fillColor=none;top=0;left=0;bottom=0;right=0;pointerEvents=1;" parent="awfxSUN__mGekCUjlMmU-9" vertex="1">
                    <mxGeometry x="147" width="333" height="51" as="geometry">
                        <mxRectangle width="333" height="51" as="alternateBounds"/>
                    </mxGeometry>
                </mxCell>
                <mxCell id="awfxSUN__mGekCUjlMmU-12" value="" style="shape=partialRectangle;collapsible=0;dropTarget=0;pointerEvents=0;fillColor=none;top=0;left=0;bottom=0;right=0;points=[[0,0.5],[1,0.5]];portConstraint=eastwest;" parent="awfxSUN__mGekCUjlMmU-2" vertex="1">
                    <mxGeometry y="154" width="480" height="52" as="geometry"/>
                </mxCell>
                <mxCell id="awfxSUN__mGekCUjlMmU-13" value="住所" style="shape=partialRectangle;html=1;whiteSpace=wrap;connectable=0;overflow=hidden;fillColor=#b0e3e6;top=0;left=0;bottom=0;right=0;pointerEvents=1;strokeColor=#0e8088;" parent="awfxSUN__mGekCUjlMmU-12" vertex="1">
                    <mxGeometry width="147" height="52" as="geometry">
                        <mxRectangle width="147" height="52" as="alternateBounds"/>
                    </mxGeometry>
                </mxCell>
                <mxCell id="awfxSUN__mGekCUjlMmU-14" value="東京都" style="shape=partialRectangle;html=1;whiteSpace=wrap;connectable=0;overflow=hidden;fillColor=none;top=0;left=0;bottom=0;right=0;pointerEvents=1;" parent="awfxSUN__mGekCUjlMmU-12" vertex="1">
                    <mxGeometry x="147" width="333" height="52" as="geometry">
                        <mxRectangle width="333" height="52" as="alternateBounds"/>
                    </mxGeometry>
                </mxCell>
                <mxCell id="awfxSUN__mGekCUjlMmU-15" value="" style="shape=partialRectangle;collapsible=0;dropTarget=0;pointerEvents=0;fillColor=none;top=0;left=0;bottom=0;right=0;points=[[0,0.5],[1,0.5]];portConstraint=eastwest;" parent="awfxSUN__mGekCUjlMmU-2" vertex="1">
                    <mxGeometry y="206" width="480" height="51" as="geometry"/>
                </mxCell>
                <mxCell id="awfxSUN__mGekCUjlMmU-16" value="連絡先" style="shape=partialRectangle;html=1;whiteSpace=wrap;connectable=0;overflow=hidden;fillColor=#b0e3e6;top=0;left=0;bottom=0;right=0;pointerEvents=1;strokeColor=#0e8088;" parent="awfxSUN__mGekCUjlMmU-15" vertex="1">
                    <mxGeometry width="147" height="51" as="geometry">
                        <mxRectangle width="147" height="51" as="alternateBounds"/>
                    </mxGeometry>
                </mxCell>
                <mxCell id="awfxSUN__mGekCUjlMmU-17" value="000-0000-0000" style="shape=partialRectangle;html=1;whiteSpace=wrap;connectable=0;overflow=hidden;fillColor=none;top=0;left=0;bottom=0;right=0;pointerEvents=1;" parent="awfxSUN__mGekCUjlMmU-15" vertex="1">
                    <mxGeometry x="147" width="333" height="51" as="geometry">
                        <mxRectangle width="333" height="51" as="alternateBounds"/>
                    </mxGeometry>
                </mxCell>
                <mxCell id="FgVnQMQADnEq9AMCaen1-0" value="" style="shape=image;html=1;verticalAlign=top;verticalLabelPosition=bottom;labelBackgroundColor=#ffffff;imageAspect=0;aspect=fixed;image=https://cdn1.iconfinder.com/data/icons/ui-essentials-14/32/UI_Essentials_button_circle_round_arrow_previous-128.png" vertex="1" parent="5RedW3WJM9E-DbaDht19-1">
                    <mxGeometry x="15" y="36.5" width="40" height="40" as="geometry"/>
                </mxCell>
            </root>
        </mxGraphModel>
    </diagram>
</mxfile>